<svg width="24" height="25" viewBox="0 0 24 25" fill="none" xmlns="http://www.w3.org/2000/svg">
<g id="folder">
<path id="Icon" d="M13 7.10663L11.8845 4.87554C11.5634 4.23343 11.4029 3.91236 11.1634 3.67779C10.9516 3.47036 10.6963 3.3126 10.4161 3.21594C10.0992 3.10663 9.74021 3.10663 9.02229 3.10663H5.2C4.0799 3.10663 3.51984 3.10663 3.09202 3.32462C2.71569 3.51636 2.40973 3.82232 2.21799 4.19865C2 4.62647 2 5.18652 2 6.30663V7.10663M2 7.10663H17.2C18.8802 7.10663 19.7202 7.10663 20.362 7.43361C20.9265 7.72123 21.3854 8.18017 21.673 8.74466C22 9.38639 22 10.2265 22 11.9066V16.3066C22 17.9868 22 18.8269 21.673 19.4686C21.3854 20.0331 20.9265 20.492 20.362 20.7796C19.7202 21.1066 18.8802 21.1066 17.2 21.1066H6.8C5.11984 21.1066 4.27976 21.1066 3.63803 20.7796C3.07354 20.492 2.6146 20.0331 2.32698 19.4686C2 18.8269 2 17.9868 2 16.3066V7.10663Z" stroke="#666C6C" stroke-width="1.5" stroke-linecap="round" stroke-linejoin="round"/>
<path id="Icon_2" d="M10.6301 16.5962V11.4918C10.6301 11.2808 10.6301 11.1752 10.6685 11.0896C10.7023 11.0142 10.7568 10.9498 10.8257 10.904C10.9038 10.8521 11.0079 10.8347 11.2161 10.8L15.0736 10.1571C15.3546 10.1103 15.4951 10.0869 15.6046 10.1275C15.7006 10.1632 15.7812 10.2314 15.8322 10.3203C15.8903 10.4217 15.8903 10.5641 15.8903 10.8489V15.7195M10.6301 16.5962C10.6301 17.3225 10.0413 17.9113 9.31505 17.9113C8.58877 17.9113 8 17.3225 8 16.5962C8 15.87 8.58877 15.2812 9.31505 15.2812C10.0413 15.2812 10.6301 15.87 10.6301 16.5962ZM15.8903 15.7195C15.8903 16.4458 15.3015 17.0346 14.5752 17.0346C13.849 17.0346 13.2602 16.4458 13.2602 15.7195C13.2602 14.9933 13.849 14.4045 14.5752 14.4045C15.3015 14.4045 15.8903 14.9933 15.8903 15.7195Z" stroke="#666C6C" stroke-width="1.5" stroke-linecap="round" stroke-linejoin="round"/>
</g>
</svg>
