<svg width="24" height="25" viewBox="0 0 24 25" fill="none" xmlns="http://www.w3.org/2000/svg">
<g id="drum 1">
<path id="Vector" d="M20.7492 7.3441C20.4192 7.0216 19.8917 7.0291 19.5708 7.35743C19.2483 7.68743 19.255 8.2141 19.5842 8.53577C20.0817 9.0216 20.3333 9.52244 20.3333 10.0233C20.3333 11.7974 16.9117 13.7733 12 13.7733C7.08833 13.7733 3.66667 11.7974 3.66667 10.0233C3.66667 8.2491 7.08833 6.27326 12 6.27326C12.5342 6.27326 13.0692 6.29743 13.59 6.34576C14.0617 6.39076 14.4542 6.05076 14.4967 5.59243C14.5383 5.13409 14.2017 4.72826 13.7433 4.68576C13.1708 4.63409 12.5842 4.60659 12 4.60659C6.3925 4.60659 2 6.98576 2 10.0233V16.6899C2 19.7275 6.3925 22.1066 12 22.1066C17.6075 22.1066 22 19.7275 22 16.6899V10.0233C22 9.06994 21.5667 8.14327 20.7492 7.3441ZM11.1667 20.42C9.93583 20.3625 8.81333 20.18 7.83333 19.9108V14.9641C8.85833 15.2124 9.98 15.3708 11.1667 15.4216V20.42ZM12.8333 15.4216C14.02 15.3708 15.1417 15.2124 16.1667 14.9641V19.9108C15.1867 20.18 14.0642 20.3625 12.8333 20.42V15.4216ZM3.66667 16.6899V13.0558C4.335 13.6008 5.1825 14.0724 6.16667 14.4499V19.3125C4.59083 18.5875 3.66667 17.6108 3.66667 16.6899ZM17.8333 19.3125V14.4499C18.8175 14.0724 19.665 13.6008 20.3333 13.0558V16.6899C20.3333 17.6116 19.4092 18.5875 17.8333 19.3125ZM12.2442 9.8191L20.5883 2.31992C20.93 2.01409 21.4558 2.03909 21.7658 2.38242C22.0733 2.72492 22.045 3.25242 21.7033 3.55992L13.3592 11.0599C13.2 11.2024 13 11.2733 12.8017 11.2733C12.5742 11.2733 12.3467 11.1808 12.1817 10.9974C11.8742 10.6549 11.9025 10.1266 12.2442 9.8191Z" fill="#666C6C"/>
</g>
</svg>
