<svg width="24" height="25" viewBox="0 0 24 25" fill="none" xmlns="http://www.w3.org/2000/svg">
<g id="home-04">
<g id="Icon">
<path d="M12 16.1066C13.6569 16.1066 15 14.7635 15 13.1066C15 11.4498 13.6569 10.1066 12 10.1066C10.3431 10.1066 9 11.4498 9 13.1066C9 14.7635 10.3431 16.1066 12 16.1066Z" stroke="#5FB0B7" stroke-width="1.5" stroke-linecap="round" stroke-linejoin="round"/>
<path d="M3 10.6717C3 10.0974 3 9.81018 3.07403 9.54571C3.1396 9.31144 3.24737 9.0911 3.39203 8.89552C3.55534 8.67471 3.78202 8.4984 4.23539 8.14578L11.0177 2.87066C11.369 2.5974 11.5447 2.46078 11.7387 2.40826C11.9098 2.36192 12.0902 2.36192 12.2613 2.40826C12.4553 2.46078 12.631 2.5974 12.9823 2.87066L19.7646 8.14578C20.218 8.4984 20.4447 8.67471 20.608 8.89552C20.7526 9.0911 20.8604 9.31144 20.926 9.54571C21 9.81018 21 10.0974 21 10.6717V17.9066C21 19.0267 21 19.5868 20.782 20.0146C20.5903 20.3909 20.2843 20.6969 19.908 20.8887C19.4802 21.1066 18.9201 21.1066 17.8 21.1066H6.2C5.07989 21.1066 4.51984 21.1066 4.09202 20.8887C3.71569 20.6969 3.40973 20.3909 3.21799 20.0146C3 19.5868 3 19.0267 3 17.9066V10.6717Z" stroke="#5FB0B7" stroke-width="1.5" stroke-linecap="round" stroke-linejoin="round"/>
</g>
</g>
</svg>
