<svg width="24" height="25" viewBox="0 0 24 25" fill="none" xmlns="http://www.w3.org/2000/svg">
<g id="music-note-01">
<path id="Icon" d="M9 18.1066V6.46202C9 5.98049 9 5.73972 9.0876 5.54444C9.16482 5.37231 9.28917 5.22553 9.44627 5.12106C9.62449 5.00254 9.86198 4.96296 10.337 4.8838L19.137 3.41713C19.7779 3.3103 20.0984 3.25689 20.3482 3.34966C20.5674 3.43107 20.7511 3.58671 20.8674 3.78952C21 4.02064 21 4.34555 21 4.99536V16.1066M9 18.1066C9 19.7635 7.65685 21.1066 6 21.1066C4.34315 21.1066 3 19.7635 3 18.1066C3 16.4498 4.34315 15.1066 6 15.1066C7.65685 15.1066 9 16.4498 9 18.1066ZM21 16.1066C21 17.7635 19.6569 19.1066 18 19.1066C16.3431 19.1066 15 17.7635 15 16.1066C15 14.4498 16.3431 13.1066 18 13.1066C19.6569 13.1066 21 14.4498 21 16.1066Z" stroke="#666C6C" stroke-width="1.5" stroke-linecap="round" stroke-linejoin="round"/>
</g>
</svg>
