<svg width="24" height="25" viewBox="0 0 24 25" fill="none" xmlns="http://www.w3.org/2000/svg">
<g id="star-01">
<path id="Icon" d="M11.2827 3.55993C11.5131 3.09299 11.6284 2.85952 11.7848 2.78493C11.9209 2.72003 12.0791 2.72003 12.2152 2.78493C12.3717 2.85952 12.4869 3.09299 12.7174 3.55993L14.9041 7.9899C14.9721 8.12775 15.0061 8.19667 15.0558 8.25019C15.0999 8.29757 15.1527 8.33596 15.2113 8.36323C15.2776 8.39404 15.3536 8.40515 15.5057 8.42739L20.397 9.14232C20.9121 9.2176 21.1696 9.25525 21.2888 9.38105C21.3925 9.4905 21.4412 9.64091 21.4215 9.79039C21.3988 9.96219 21.2124 10.1438 20.8395 10.507L17.3014 13.953C17.1912 14.0605 17.136 14.1142 17.1004 14.1781C17.0689 14.2347 17.0487 14.2968 17.0409 14.3611C17.0321 14.4337 17.0451 14.5096 17.0711 14.6614L17.906 19.5287C17.994 20.0421 18.038 20.2988 17.9553 20.4511C17.8833 20.5836 17.7554 20.6766 17.6071 20.7041C17.4366 20.7357 17.2061 20.6145 16.7451 20.372L12.3724 18.0724C12.2361 18.0008 12.168 17.965 12.0962 17.9509C12.0327 17.9384 11.9673 17.9384 11.9038 17.9509C11.832 17.965 11.7639 18.0008 11.6277 18.0724L7.25492 20.372C6.79392 20.6145 6.56341 20.7357 6.39297 20.7041C6.24468 20.6766 6.11672 20.5836 6.04474 20.4511C5.962 20.2988 6.00603 20.0421 6.09407 19.5287L6.92889 14.6614C6.95491 14.5096 6.96793 14.4337 6.95912 14.3611C6.95132 14.2968 6.93111 14.2347 6.89961 14.1781C6.86402 14.1142 6.80888 14.0605 6.69859 13.953L3.16056 10.507C2.78766 10.1438 2.60121 9.96219 2.57853 9.79039C2.55879 9.64091 2.60755 9.4905 2.71125 9.38105C2.83044 9.25525 3.08797 9.2176 3.60304 9.14232L8.49431 8.42739C8.64642 8.40515 8.72248 8.39404 8.78872 8.36323C8.84736 8.33596 8.90016 8.29757 8.94419 8.25019C8.99391 8.19667 9.02793 8.12775 9.09597 7.9899L11.2827 3.55993Z" stroke="#666C6C" stroke-width="1.5" stroke-linecap="round" stroke-linejoin="round"/>
</g>
</svg>
