<svg width="24" height="25" viewBox="0 0 24 25" fill="none" xmlns="http://www.w3.org/2000/svg">
<g id="radio-alt 1">
<path id="Vector" d="M17.8333 7.10756H10.3717L19.7817 3.72527C20.2158 3.56945 20.44 3.09281 20.285 2.6595C20.1283 2.2262 19.65 1.99871 19.2192 2.15703L4.8725 7.31338C3.20667 7.85918 2 9.42825 2 11.274V17.9402C2 20.2376 3.86917 22.1066 6.16667 22.1066H17.8333C20.1308 22.1066 22 20.2376 22 17.9402V11.274C22 8.97661 20.1308 7.10756 17.8333 7.10756ZM6.16667 8.77412H17.8333C18.92 8.77412 19.8458 9.47075 20.19 10.4407H3.81C4.05333 9.7549 4.5 8.77412 6.16667 8.77412ZM17.8333 20.4401H6.16667C4.78833 20.4401 3.66667 19.3185 3.66667 17.9402V12.1072H20.3333V17.9402C20.3333 19.3185 19.2117 20.4401 17.8333 20.4401ZM11.1667 14.6071C11.1667 15.0671 10.7942 15.4404 10.3333 15.4404H6.16667C5.70583 15.4404 5.33333 15.0671 5.33333 14.6071C5.33333 14.1471 5.70583 13.7738 6.16667 13.7738H10.3333C10.7942 13.7738 11.1667 14.1471 11.1667 14.6071ZM11.1667 17.9402C11.1667 18.4002 10.7942 18.7735 10.3333 18.7735H6.16667C5.70583 18.7735 5.33333 18.4002 5.33333 17.9402C5.33333 17.4802 5.70583 17.1069 6.16667 17.1069H10.3333C10.7942 17.1069 11.1667 17.4802 11.1667 17.9402ZM15.75 13.3572C14.1417 13.3572 12.8333 14.6654 12.8333 16.2737C12.8333 17.8819 14.1417 19.1901 15.75 19.1901C17.3583 19.1901 18.6667 17.8819 18.6667 16.2737C18.6667 14.6654 17.3583 13.3572 15.75 13.3572ZM15.75 17.5236C15.0608 17.5236 14.5 16.9628 14.5 16.2737C14.5 15.5845 15.0608 15.0237 15.75 15.0237C16.4392 15.0237 17 15.5845 17 16.2737C17 16.9628 16.4392 17.5236 15.75 17.5236Z" fill="#666C6C"/>
</g>
</svg>
