<svg width="24" height="25" viewBox="0 0 24 25" fill="none" xmlns="http://www.w3.org/2000/svg">
<g id="microphone-alt 1">
<path id="Vector" d="M17.6318 15.4219C17.058 15.4206 16.4897 15.5332 15.9596 15.7534C15.4295 15.9735 14.9481 16.2968 14.5433 16.7045L12.0438 19.2113C11.658 19.6005 11.1991 19.9091 10.6935 20.1192C10.188 20.3294 9.6459 20.4368 9.09866 20.4354H4.60548C4.42061 20.4357 4.23981 20.381 4.08599 20.2781C3.93217 20.1752 3.81225 20.0289 3.74141 19.8577C3.67057 19.6864 3.65201 19.4979 3.68806 19.3161C3.72412 19.1342 3.81318 18.9672 3.94396 18.8361L4.26555 18.5136C4.72974 18.7407 5.25321 18.8161 5.76237 18.7293C6.27153 18.6425 6.74076 18.3979 7.1041 18.0298L12.3746 12.748C12.7263 12.8428 13.0872 12.8989 13.451 12.9152C13.5227 12.9152 13.5952 12.9152 13.6685 12.9152C14.995 12.9141 16.267 12.3859 17.2061 11.4462L18.0392 10.6106C18.5284 10.1191 18.9106 9.53115 19.1617 8.88394C19.4128 8.23673 19.5273 7.54432 19.498 6.85047C19.4702 6.15356 19.2965 5.47033 18.988 4.84523C18.6795 4.22013 18.2432 3.66718 17.7076 3.22235C16.7069 2.42743 15.4474 2.03376 14.1736 2.11776C12.8997 2.20176 11.7024 2.75742 10.8141 3.67691L10.2867 4.20667C9.64934 4.84363 9.18505 5.63355 8.93801 6.5013C8.69097 7.36904 8.66941 8.28574 8.87538 9.16421L3.56987 14.4852C3.20736 14.8512 2.96658 15.3207 2.88052 15.8293C2.79446 16.3379 2.86733 16.8608 3.08914 17.3262L2.76588 17.6504C2.4007 18.015 2.15174 18.4801 2.0506 18.9868C1.94945 19.4935 2.00068 20.0189 2.19778 20.4963C2.39487 20.9738 2.72896 21.3818 3.15763 21.6684C3.5863 21.9551 4.09024 22.1076 4.60548 22.1066H9.09866C9.86481 22.1087 10.6238 21.9583 11.3315 21.6641C12.0393 21.3699 12.6818 20.9378 13.2219 20.3928L15.7214 17.8861C16.0992 17.5071 16.5807 17.2491 17.1047 17.1446C17.6288 17.04 18.1721 17.0937 18.6657 17.2988C19.1594 17.5038 19.5814 17.8511 19.8783 18.2967C20.1752 18.7423 20.3337 19.2661 20.3337 19.8021V22.1066H22V19.8021C21.9985 18.6407 21.5377 17.5274 20.7188 16.7062C19.8999 15.8851 18.7898 15.4232 17.6318 15.4219ZM11.4665 5.38485L11.9939 4.85509C12.6782 4.16544 13.6065 3.77499 14.5766 3.76882C15.3276 3.76148 16.057 4.02109 16.6353 4.50163C16.9932 4.79797 17.2848 5.16649 17.4914 5.58324C17.6979 6 17.8147 6.45567 17.8342 6.92066C17.8535 7.38317 17.777 7.84467 17.6097 8.27609C17.4424 8.70752 17.1878 9.09952 16.862 9.42742L16.0288 10.263C15.7015 10.5913 15.3095 10.8476 14.8779 11.0156C14.4464 11.1836 13.9846 11.2595 13.5222 11.2386C13.0597 11.2177 12.6066 11.1004 12.1919 10.8941C11.7771 10.6879 11.4098 10.3973 11.1132 10.0407C10.5867 9.35873 10.3312 8.50506 10.3961 7.64497C10.4611 6.78488 10.8419 5.97955 11.4648 5.38485H11.4665ZM4.74795 15.6667L9.61022 10.7894C9.68603 10.898 9.74685 11.015 9.83267 11.1178C10.1092 11.4454 10.4258 11.7369 10.775 11.9851L5.92602 16.8483C5.76761 17.0007 5.55655 17.0859 5.33698 17.0859C5.11742 17.0859 4.90636 17.0007 4.74795 16.8483C4.59176 16.6916 4.50401 16.4791 4.50401 16.2575C4.50401 16.0359 4.59176 15.8234 4.74795 15.6667Z" fill="#666C6C"/>
</g>
</svg>
